<svg width="150" height="33" viewBox="0 0 150 33" fill="none" xmlns="http://www.w3.org/2000/svg">
<g clip-path="url(#clip0_59_56)">
<path fill-rule="evenodd" clip-rule="evenodd" d="M5.27171 28.8277C5.75795 29.0651 6.26495 29.2078 6.7754 29.2736C6.42267 28.8712 6.0913 28.4224 5.76144 27.897C5.06925 26.6562 4.82187 25.6525 4.7693 24.3314C4.78297 21.8105 5.60632 19.9169 6.72163 17.8641C7.78431 16.006 8.94337 14.403 10.2182 12.7079C10.598 12.1247 11.0556 11.5486 11.4475 10.9609C11.5534 10.8025 11.6303 10.62 11.7203 10.454C11.7698 10.3236 11.7524 10.3627 11.7985 10.5074C11.873 10.5341 11.7775 10.3516 11.6138 10.065C8.1989 8.62742 4.07507 11.4429 2.29948 16.4769C0.482953 21.6316 1.81376 27.158 5.27171 28.8277ZM7.05654 29.2977C6.69085 28.8429 6.37838 28.3442 6.08835 27.7486C5.54908 26.5529 5.40496 25.6282 5.4845 24.4248C5.78868 22.1222 6.76935 20.4676 8.02258 18.6855C9.32173 17.1129 10.5334 15.4466 12.0174 14.0397C12.5293 13.4494 13.0458 12.8566 13.5165 12.2313C13.5544 12.1691 13.6858 11.9589 13.7966 11.7641C15.7407 14.2237 16.2463 18.4875 14.8256 22.519C13.3091 26.813 10.089 29.4895 7.05654 29.2977Z" fill="#C95E20"/>
</g>
<g clip-path="url(#clip1_59_56)">
<path fill-rule="evenodd" clip-rule="evenodd" d="M27.5823 22.6184C27.4164 22.8835 27.2121 23.1048 26.9832 23.2866C27.0348 22.9734 27.0621 22.6419 27.0658 22.2705C27.0323 21.4186 26.8529 20.8197 26.4839 20.1101C25.7242 18.7891 24.7576 18.0313 23.6012 17.2741C22.5286 16.6041 21.4853 16.0959 20.358 15.5728C19.9989 15.3758 19.6039 15.205 19.2374 15.0092C19.1386 14.9565 19.0466 14.8828 18.9532 14.8215C18.8901 14.7672 18.9103 14.7827 18.9311 14.8721C18.9027 14.9076 18.8947 14.7841 18.8889 14.5863C20.1226 12.8454 22.9721 13.1354 25.3406 15.2691C27.765 17.4543 28.7677 20.7431 27.5823 22.6184ZM26.8534 23.3804C26.8957 23.0358 26.8989 22.6835 26.8623 22.2868C26.7677 21.5028 26.5617 20.9751 26.1635 20.3655C25.3275 19.243 24.3557 18.6563 23.213 18.0812C22.1105 17.6294 21.0226 17.1032 19.8796 16.7919C19.454 16.6294 19.0253 16.4668 18.6093 16.2739C18.5722 16.2522 18.4455 16.1796 18.3333 16.1091C18.1212 17.9629 19.1486 20.3499 21.0448 22.059C23.066 23.8785 25.4338 24.3562 26.8534 23.3804Z" fill="#733612"/>
</g>
<path d="M51.496 12.024C51.944 12.024 52.304 12.152 52.576 12.408C52.848 12.664 52.984 13.008 52.984 13.44V22.92C52.984 24.76 52.472 26.152 51.448 27.096C50.424 28.04 48.912 28.512 46.912 28.512C45.168 28.512 43.712 28.184 42.544 27.528C41.952 27.176 41.656 26.752 41.656 26.256C41.656 25.904 41.736 25.624 41.896 25.416C42.072 25.208 42.296 25.104 42.568 25.104C42.712 25.104 42.888 25.136 43.096 25.2C43.304 25.28 43.52 25.368 43.744 25.464C44.32 25.704 44.832 25.888 45.28 26.016C45.744 26.144 46.272 26.208 46.864 26.208C48.96 26.208 50.008 25.184 50.008 23.136V21.6C49.656 22.256 49.144 22.768 48.472 23.136C47.8 23.488 47.032 23.664 46.168 23.664C45.144 23.664 44.232 23.424 43.432 22.944C42.648 22.448 42.032 21.76 41.584 20.88C41.136 20 40.912 18.984 40.912 17.832C40.912 16.68 41.128 15.664 41.56 14.784C42.008 13.888 42.632 13.2 43.432 12.72C44.232 12.224 45.144 11.976 46.168 11.976C47.032 11.976 47.8 12.16 48.472 12.528C49.144 12.88 49.656 13.384 50.008 14.04V13.416C50.008 13 50.144 12.664 50.416 12.408C50.688 12.152 51.048 12.024 51.496 12.024ZM46.96 21.336C47.92 21.336 48.664 21.024 49.192 20.4C49.736 19.776 50.008 18.92 50.008 17.832C50.008 16.728 49.736 15.864 49.192 15.24C48.664 14.616 47.92 14.304 46.96 14.304C46.016 14.304 45.272 14.616 44.728 15.24C44.184 15.864 43.912 16.728 43.912 17.832C43.912 18.92 44.184 19.776 44.728 20.4C45.272 21.024 46.016 21.336 46.96 21.336ZM65.3793 20.784C65.6513 20.784 65.8673 20.888 66.0273 21.096C66.2033 21.304 66.2913 21.584 66.2913 21.936C66.2913 22.432 65.9953 22.848 65.4033 23.184C64.8593 23.488 64.2433 23.736 63.5553 23.928C62.8673 24.104 62.2113 24.192 61.5872 24.192C59.6993 24.192 58.2033 23.648 57.0993 22.56C55.9953 21.472 55.4433 19.984 55.4433 18.096C55.4433 16.896 55.6833 15.832 56.1633 14.904C56.6433 13.976 57.3153 13.256 58.1793 12.744C59.0593 12.232 60.0513 11.976 61.1553 11.976C62.2113 11.976 63.1313 12.208 63.9153 12.672C64.6993 13.136 65.3073 13.792 65.7393 14.64C66.1713 15.488 66.3873 16.488 66.3873 17.64C66.3873 18.328 66.0833 18.672 65.4753 18.672H58.3953C58.4913 19.776 58.8033 20.592 59.3313 21.12C59.8593 21.632 60.6273 21.888 61.6353 21.888C62.1473 21.888 62.5953 21.824 62.9793 21.696C63.3793 21.568 63.8273 21.392 64.3233 21.168C64.8033 20.912 65.1553 20.784 65.3793 20.784ZM61.2273 14.088C60.4113 14.088 59.7553 14.344 59.2593 14.856C58.7793 15.368 58.4913 16.104 58.3953 17.064H63.8193C63.7873 16.088 63.5473 15.352 63.0993 14.856C62.6513 14.344 62.0273 14.088 61.2273 14.088ZM74.7732 21.912C75.5732 21.96 75.9732 22.32 75.9732 22.992C75.9732 23.376 75.8132 23.672 75.4932 23.88C75.1892 24.072 74.7492 24.152 74.1732 24.12L73.5252 24.072C70.8372 23.88 69.4932 22.44 69.4932 19.752V14.52H68.2932C67.8612 14.52 67.5252 14.424 67.2852 14.232C67.0612 14.04 66.9492 13.76 66.9492 13.392C66.9492 13.024 67.0612 12.744 67.2852 12.552C67.5252 12.36 67.8612 12.264 68.2932 12.264H69.4932V10.056C69.4932 9.624 69.6292 9.28 69.9012 9.024C70.1732 8.768 70.5412 8.64 71.0052 8.64C71.4532 8.64 71.8132 8.768 72.0852 9.024C72.3572 9.28 72.4932 9.624 72.4932 10.056V12.264H74.5332C74.9652 12.264 75.2932 12.36 75.5172 12.552C75.7572 12.744 75.8772 13.024 75.8772 13.392C75.8772 13.76 75.7572 14.04 75.5172 14.232C75.2932 14.424 74.9652 14.52 74.5332 14.52H72.4932V19.968C72.4932 21.152 73.0372 21.784 74.1252 21.864L74.7732 21.912ZM79.4213 24.144C78.9093 24.144 78.4853 23.976 78.1493 23.64C77.8133 23.288 77.6453 22.856 77.6453 22.344C77.6453 21.832 77.8133 21.408 78.1493 21.072C78.4853 20.72 78.9093 20.544 79.4213 20.544C79.9333 20.544 80.3573 20.72 80.6933 21.072C81.0293 21.408 81.1973 21.832 81.1973 22.344C81.1973 22.856 81.0293 23.288 80.6933 23.64C80.3573 23.976 79.9333 24.144 79.4213 24.144ZM88.8618 24.192C87.6938 24.192 86.6618 23.944 85.7658 23.448C84.8858 22.952 84.2058 22.248 83.7258 21.336C83.2458 20.424 83.0058 19.36 83.0058 18.144C83.0058 16.928 83.2538 15.856 83.7498 14.928C84.2618 13.984 84.9738 13.256 85.8858 12.744C86.7978 12.232 87.8458 11.976 89.0298 11.976C89.6538 11.976 90.2778 12.064 90.9018 12.24C91.5418 12.416 92.1018 12.656 92.5818 12.96C93.0938 13.296 93.3498 13.72 93.3498 14.232C93.3498 14.584 93.2618 14.872 93.0858 15.096C92.9258 15.304 92.7098 15.408 92.4378 15.408C92.2618 15.408 92.0778 15.368 91.8858 15.288C91.6938 15.208 91.5018 15.112 91.3098 15C90.9578 14.792 90.6218 14.632 90.3018 14.52C89.9818 14.392 89.6138 14.328 89.1978 14.328C88.2058 14.328 87.4378 14.656 86.8938 15.312C86.3658 15.952 86.1018 16.88 86.1018 18.096C86.1018 19.296 86.3658 20.224 86.8938 20.88C87.4378 21.52 88.2058 21.84 89.1978 21.84C89.5978 21.84 89.9498 21.784 90.2538 21.672C90.5738 21.544 90.9258 21.376 91.3098 21.168C91.5498 21.024 91.7578 20.92 91.9338 20.856C92.1098 20.776 92.2858 20.736 92.4618 20.736C92.7178 20.736 92.9338 20.848 93.1098 21.072C93.2858 21.296 93.3738 21.576 93.3738 21.912C93.3738 22.184 93.3098 22.424 93.1818 22.632C93.0698 22.824 92.8778 23 92.6058 23.16C92.1098 23.48 91.5338 23.736 90.8778 23.928C90.2218 24.104 89.5498 24.192 88.8618 24.192ZM100.725 24.192C99.5245 24.192 98.4685 23.944 97.5565 23.448C96.6605 22.952 95.9645 22.24 95.4685 21.312C94.9725 20.384 94.7245 19.304 94.7245 18.072C94.7245 16.84 94.9725 15.768 95.4685 14.856C95.9645 13.928 96.6605 13.216 97.5565 12.72C98.4685 12.224 99.5245 11.976 100.725 11.976C101.925 11.976 102.973 12.224 103.869 12.72C104.781 13.216 105.477 13.928 105.957 14.856C106.453 15.768 106.701 16.84 106.701 18.072C106.701 19.304 106.453 20.384 105.957 21.312C105.477 22.24 104.781 22.952 103.869 23.448C102.973 23.944 101.925 24.192 100.725 24.192ZM100.701 21.864C101.677 21.864 102.421 21.544 102.933 20.904C103.445 20.264 103.701 19.32 103.701 18.072C103.701 16.84 103.445 15.904 102.933 15.264C102.421 14.608 101.685 14.28 100.725 14.28C99.7645 14.28 99.0205 14.608 98.4925 15.264C97.9805 15.904 97.7245 16.84 97.7245 18.072C97.7245 19.32 97.9805 20.264 98.4925 20.904C99.0045 21.544 99.7405 21.864 100.701 21.864ZM115.035 9.312C114.299 9.36 113.763 9.584 113.427 9.984C113.091 10.384 112.923 10.96 112.923 11.712V12.264H114.963C115.859 12.264 116.307 12.64 116.307 13.392C116.307 14.144 115.859 14.52 114.963 14.52H112.923V22.704C112.923 23.168 112.779 23.52 112.491 23.76C112.219 24 111.867 24.12 111.435 24.12C111.003 24.12 110.643 24 110.355 23.76C110.067 23.52 109.923 23.168 109.923 22.704V14.52H108.723C107.827 14.52 107.379 14.144 107.379 13.392C107.379 12.64 107.827 12.264 108.723 12.264H109.923V12.096C109.923 10.592 110.315 9.416 111.099 8.568C111.899 7.704 113.019 7.216 114.459 7.104L115.083 7.056C115.723 7.008 116.171 7.08 116.427 7.272C116.699 7.448 116.835 7.728 116.835 8.112C116.835 8.8 116.443 9.184 115.659 9.264L115.035 9.312ZM123.426 9.312C122.69 9.36 122.154 9.584 121.818 9.984C121.482 10.384 121.314 10.96 121.314 11.712V12.264H123.354C124.25 12.264 124.698 12.64 124.698 13.392C124.698 14.144 124.25 14.52 123.354 14.52H121.314V22.704C121.314 23.168 121.17 23.52 120.882 23.76C120.61 24 120.258 24.12 119.826 24.12C119.394 24.12 119.034 24 118.746 23.76C118.458 23.52 118.314 23.168 118.314 22.704V14.52H117.114C116.218 14.52 115.769 14.144 115.769 13.392C115.769 12.64 116.218 12.264 117.114 12.264H118.314V12.096C118.314 10.592 118.706 9.416 119.49 8.568C120.29 7.704 121.41 7.216 122.85 7.104L123.474 7.056C124.114 7.008 124.562 7.08 124.818 7.272C125.09 7.448 125.226 7.728 125.226 8.112C125.226 8.8 124.834 9.184 124.05 9.264L123.426 9.312ZM135.27 20.784C135.542 20.784 135.758 20.888 135.918 21.096C136.094 21.304 136.182 21.584 136.182 21.936C136.182 22.432 135.886 22.848 135.294 23.184C134.75 23.488 134.134 23.736 133.446 23.928C132.758 24.104 132.102 24.192 131.478 24.192C129.59 24.192 128.094 23.648 126.99 22.56C125.886 21.472 125.334 19.984 125.334 18.096C125.334 16.896 125.574 15.832 126.054 14.904C126.534 13.976 127.206 13.256 128.07 12.744C128.95 12.232 129.942 11.976 131.046 11.976C132.102 11.976 133.022 12.208 133.806 12.672C134.59 13.136 135.198 13.792 135.63 14.64C136.062 15.488 136.278 16.488 136.278 17.64C136.278 18.328 135.974 18.672 135.366 18.672H128.286C128.382 19.776 128.694 20.592 129.222 21.12C129.75 21.632 130.518 21.888 131.526 21.888C132.038 21.888 132.486 21.824 132.87 21.696C133.27 21.568 133.718 21.392 134.214 21.168C134.694 20.912 135.046 20.784 135.27 20.784ZM131.118 14.088C130.302 14.088 129.646 14.344 129.15 14.856C128.67 15.368 128.382 16.104 128.286 17.064H133.71C133.678 16.088 133.438 15.352 132.99 14.856C132.542 14.344 131.918 14.088 131.118 14.088ZM148.02 20.784C148.292 20.784 148.508 20.888 148.668 21.096C148.844 21.304 148.932 21.584 148.932 21.936C148.932 22.432 148.636 22.848 148.044 23.184C147.5 23.488 146.884 23.736 146.196 23.928C145.508 24.104 144.852 24.192 144.228 24.192C142.34 24.192 140.844 23.648 139.74 22.56C138.636 21.472 138.084 19.984 138.084 18.096C138.084 16.896 138.324 15.832 138.804 14.904C139.284 13.976 139.956 13.256 140.82 12.744C141.7 12.232 142.692 11.976 143.796 11.976C144.852 11.976 145.772 12.208 146.556 12.672C147.34 13.136 147.948 13.792 148.38 14.64C148.812 15.488 149.028 16.488 149.028 17.64C149.028 18.328 148.724 18.672 148.116 18.672H141.036C141.132 19.776 141.444 20.592 141.972 21.12C142.5 21.632 143.268 21.888 144.276 21.888C144.788 21.888 145.236 21.824 145.62 21.696C146.02 21.568 146.468 21.392 146.964 21.168C147.444 20.912 147.796 20.784 148.02 20.784ZM143.868 14.088C143.052 14.088 142.396 14.344 141.9 14.856C141.42 15.368 141.132 16.104 141.036 17.064H146.46C146.428 16.088 146.188 15.352 145.74 14.856C145.292 14.344 144.668 14.088 143.868 14.088Z" fill="#242424"/>
<defs>
<clipPath id="clip0_59_56">
<rect width="14.692" height="19.2127" fill="white" transform="translate(0 10.9589) rotate(-7.66204)"/>
</clipPath>
<clipPath id="clip1_59_56">
<rect width="8.3061" height="11.6285" fill="white" transform="matrix(-0.924228 0.381841 0.381841 0.924228 24.8125 11.7056)"/>
</clipPath>
</defs>
</svg>
